<?xml version="1.0" standalone="no"?>
<!DOCTYPE svg PUBLIC "-//W3C//DTD SVG 20010904//EN"
 "http://www.w3.org/TR/2001/REC-SVG-20010904/DTD/svg10.dtd">
<svg version="1.0" xmlns="http://www.w3.org/2000/svg"
 width="2521.000000pt" height="2771.000000pt" viewBox="0 0 2521.000000 2771.000000"
 preserveAspectRatio="xMidYMid meet">

<g transform="translate(0.000000,2771.000000) scale(0.100000,-0.100000)"
fill="#000000" stroke="none">
<path d="M5445 27703 c-310 -40 -604 -179 -827 -391 -188 -179 -308 -367 -388
-611 -76 -229 -70 76 -70 -3628 l0 -3323 970 0 970 0 0 3005 0 3005 5480 0
5480 0 0 -3095 0 -3095 3100 0 3100 0 0 -8810 0 -8810 -8580 0 -8580 0 0 3005
0 3005 -970 0 -970 0 2 -3362 3 -3363 27 -100 c74 -278 183 -480 358 -668 211
-225 444 -357 775 -439 l90 -23 9215 -3 c8290 -2 9226 -1 9322 13 417 60 781
293 1015 647 103 157 168 311 215 517 l23 96 2 10125 2 10125 -3100 3093
-3101 3092 -6766 -1 c-3722 -1 -6780 -4 -6797 -6z m15285 -4468 l1715 -1715
-1718 0 -1717 0 0 1715 c0 943 1 1715 3 1715 1 0 774 -772 1717 -1715z"/>
<path d="M338 18271 c-73 -24 -140 -67 -199 -128 -62 -64 -93 -116 -118 -197
l-21 -68 0 -4022 c0 -3653 1 -4027 16 -4077 50 -170 172 -292 343 -343 50 -15
690 -16 7600 -16 6426 0 7554 2 7598 14 82 22 140 54 203 113 70 65 111 127
139 210 l21 63 -2 4052 -3 4053 -23 57 c-49 121 -159 231 -280 280 l-57 23
-7580 2 c-7329 2 -7582 1 -7637 -16z m6172 -3825 c0 -1372 -3 -2019 -11 -2072
-37 -268 -153 -513 -327 -689 -202 -206 -483 -340 -817 -389 -230 -34 -557
-28 -855 14 -131 18 -317 54 -325 61 -5 5 44 1161 49 1166 3 3 69 -7 148 -21
286 -52 518 -68 630 -45 130 28 245 121 288 236 57 153 54 33 57 1961 l4 1772
579 0 580 0 0 -1994z m3715 1969 c350 -46 621 -140 856 -296 129 -86 305 -263
391 -394 73 -110 146 -251 135 -261 -9 -9 -938 -354 -951 -353 -6 0 -33 28
-61 61 -57 71 -169 163 -258 212 -187 103 -429 139 -677 101 -232 -35 -379
-124 -447 -270 -24 -52 -28 -72 -28 -155 0 -119 20 -167 102 -248 118 -116
206 -153 833 -357 638 -206 770 -261 1005 -417 128 -84 297 -243 378 -356 193
-269 276 -613 238 -996 -38 -385 -163 -668 -401 -907 -258 -259 -595 -407
-1080 -476 -195 -27 -646 -25 -838 5 -350 55 -625 158 -888 333 -136 91 -350
301 -444 437 -106 152 -253 444 -233 463 11 10 951 359 967 359 7 0 17 -10 23
-22 6 -13 37 -59 70 -104 162 -218 362 -374 583 -455 135 -49 210 -62 365 -61
329 1 562 103 647 283 53 110 60 253 19 371 -25 72 -57 122 -117 182 -128 127
-290 203 -819 387 -502 174 -554 193 -730 279 -484 234 -739 559 -795 1010
-14 121 -12 330 5 435 83 512 438 917 975 1110 150 53 392 103 585 119 102 8
474 -4 590 -19z"/>
</g>
</svg>
